<mxfile host="app.diagrams.net" modified="2023-04-30T06:03:20.029Z" agent="Mozilla/5.0 (Windows NT 10.0; Win64; x64) AppleWebKit/537.36 (KHTML, like Gecko) Chrome/112.0.0.0 Safari/537.36" etag="1LOOoiRf8_puaYPK1czf" version="21.2.3" type="github">
  <diagram name="第 1 页" id="ul8XlkIB37xrSf5pHtPE">
    <mxGraphModel dx="1012" dy="652" grid="1" gridSize="10" guides="1" tooltips="1" connect="1" arrows="1" fold="1" page="1" pageScale="1" pageWidth="827" pageHeight="1169" math="0" shadow="0">
      <root>
        <mxCell id="0" />
        <mxCell id="1" parent="0" />
        <mxCell id="cRkElGh2p4GdAxfpWa7J-23" style="edgeStyle=orthogonalEdgeStyle;rounded=0;orthogonalLoop=1;jettySize=auto;html=1;entryX=0.5;entryY=0;entryDx=0;entryDy=0;" edge="1" parent="1" source="cRkElGh2p4GdAxfpWa7J-1" target="cRkElGh2p4GdAxfpWa7J-2">
          <mxGeometry relative="1" as="geometry" />
        </mxCell>
        <mxCell id="cRkElGh2p4GdAxfpWa7J-1" value="开始" style="rounded=1;whiteSpace=wrap;html=1;" vertex="1" parent="1">
          <mxGeometry x="370" y="250" width="120" height="30" as="geometry" />
        </mxCell>
        <mxCell id="cRkElGh2p4GdAxfpWa7J-24" style="edgeStyle=orthogonalEdgeStyle;rounded=0;orthogonalLoop=1;jettySize=auto;html=1;" edge="1" parent="1" source="cRkElGh2p4GdAxfpWa7J-2" target="cRkElGh2p4GdAxfpWa7J-3">
          <mxGeometry relative="1" as="geometry" />
        </mxCell>
        <mxCell id="cRkElGh2p4GdAxfpWa7J-2" value="解析URL" style="rounded=1;whiteSpace=wrap;html=1;" vertex="1" parent="1">
          <mxGeometry x="370" y="300" width="120" height="30" as="geometry" />
        </mxCell>
        <mxCell id="cRkElGh2p4GdAxfpWa7J-3" value="向目标网站发送HTTP请求" style="rounded=1;whiteSpace=wrap;html=1;" vertex="1" parent="1">
          <mxGeometry x="355" y="350" width="150" height="30" as="geometry" />
        </mxCell>
        <mxCell id="cRkElGh2p4GdAxfpWa7J-4" value="获取响应数据包" style="rounded=1;whiteSpace=wrap;html=1;" vertex="1" parent="1">
          <mxGeometry x="355" y="410" width="150" height="30" as="geometry" />
        </mxCell>
        <mxCell id="cRkElGh2p4GdAxfpWa7J-5" value="打开指纹库读取指纹" style="rounded=1;whiteSpace=wrap;html=1;" vertex="1" parent="1">
          <mxGeometry x="355" y="460" width="150" height="30" as="geometry" />
        </mxCell>
        <mxCell id="cRkElGh2p4GdAxfpWa7J-38" style="edgeStyle=orthogonalEdgeStyle;rounded=0;orthogonalLoop=1;jettySize=auto;html=1;entryX=0.5;entryY=0;entryDx=0;entryDy=0;" edge="1" parent="1" source="cRkElGh2p4GdAxfpWa7J-6" target="cRkElGh2p4GdAxfpWa7J-7">
          <mxGeometry relative="1" as="geometry">
            <Array as="points">
              <mxPoint x="150" y="580" />
            </Array>
          </mxGeometry>
        </mxCell>
        <mxCell id="cRkElGh2p4GdAxfpWa7J-6" value="轮询指纹库中组件指纹" style="rhombus;whiteSpace=wrap;html=1;" vertex="1" parent="1">
          <mxGeometry x="340" y="520" width="177.5" height="60" as="geometry" />
        </mxCell>
        <mxCell id="cRkElGh2p4GdAxfpWa7J-40" style="edgeStyle=orthogonalEdgeStyle;rounded=0;orthogonalLoop=1;jettySize=auto;html=1;entryX=0;entryY=0.5;entryDx=0;entryDy=0;" edge="1" parent="1" source="cRkElGh2p4GdAxfpWa7J-7" target="cRkElGh2p4GdAxfpWa7J-12">
          <mxGeometry relative="1" as="geometry" />
        </mxCell>
        <mxCell id="cRkElGh2p4GdAxfpWa7J-7" value="Type=url？" style="rhombus;whiteSpace=wrap;html=1;" vertex="1" parent="1">
          <mxGeometry x="80" y="610" width="140" height="40" as="geometry" />
        </mxCell>
        <mxCell id="cRkElGh2p4GdAxfpWa7J-41" style="edgeStyle=orthogonalEdgeStyle;rounded=0;orthogonalLoop=1;jettySize=auto;html=1;entryX=0;entryY=0.5;entryDx=0;entryDy=0;" edge="1" parent="1" source="cRkElGh2p4GdAxfpWa7J-12" target="cRkElGh2p4GdAxfpWa7J-13">
          <mxGeometry relative="1" as="geometry" />
        </mxCell>
        <mxCell id="cRkElGh2p4GdAxfpWa7J-12" value="Type=html？" style="rhombus;whiteSpace=wrap;html=1;" vertex="1" parent="1">
          <mxGeometry x="240" y="610" width="110" height="40" as="geometry" />
        </mxCell>
        <mxCell id="cRkElGh2p4GdAxfpWa7J-42" style="edgeStyle=orthogonalEdgeStyle;rounded=0;orthogonalLoop=1;jettySize=auto;html=1;entryX=0;entryY=0.5;entryDx=0;entryDy=0;" edge="1" parent="1" source="cRkElGh2p4GdAxfpWa7J-13" target="cRkElGh2p4GdAxfpWa7J-14">
          <mxGeometry relative="1" as="geometry" />
        </mxCell>
        <mxCell id="cRkElGh2p4GdAxfpWa7J-45" style="edgeStyle=orthogonalEdgeStyle;rounded=0;orthogonalLoop=1;jettySize=auto;html=1;entryX=0.386;entryY=-0.055;entryDx=0;entryDy=0;entryPerimeter=0;" edge="1" parent="1" source="cRkElGh2p4GdAxfpWa7J-13" target="cRkElGh2p4GdAxfpWa7J-16">
          <mxGeometry relative="1" as="geometry" />
        </mxCell>
        <mxCell id="cRkElGh2p4GdAxfpWa7J-13" value="Type=headers？" style="rhombus;whiteSpace=wrap;html=1;" vertex="1" parent="1">
          <mxGeometry x="390" y="610" width="110" height="40" as="geometry" />
        </mxCell>
        <mxCell id="cRkElGh2p4GdAxfpWa7J-43" style="edgeStyle=orthogonalEdgeStyle;rounded=0;orthogonalLoop=1;jettySize=auto;html=1;entryX=0;entryY=0.5;entryDx=0;entryDy=0;" edge="1" parent="1" source="cRkElGh2p4GdAxfpWa7J-14" target="cRkElGh2p4GdAxfpWa7J-15">
          <mxGeometry relative="1" as="geometry" />
        </mxCell>
        <mxCell id="cRkElGh2p4GdAxfpWa7J-48" style="edgeStyle=orthogonalEdgeStyle;rounded=0;orthogonalLoop=1;jettySize=auto;html=1;entryX=0.429;entryY=0;entryDx=0;entryDy=0;entryPerimeter=0;" edge="1" parent="1" source="cRkElGh2p4GdAxfpWa7J-14" target="cRkElGh2p4GdAxfpWa7J-17">
          <mxGeometry relative="1" as="geometry" />
        </mxCell>
        <mxCell id="cRkElGh2p4GdAxfpWa7J-14" value="Type=script？" style="rhombus;whiteSpace=wrap;html=1;" vertex="1" parent="1">
          <mxGeometry x="540" y="610" width="120" height="40" as="geometry" />
        </mxCell>
        <mxCell id="cRkElGh2p4GdAxfpWa7J-55" style="edgeStyle=orthogonalEdgeStyle;rounded=0;orthogonalLoop=1;jettySize=auto;html=1;entryX=0.551;entryY=0.333;entryDx=0;entryDy=0;entryPerimeter=0;" edge="1" parent="1" source="cRkElGh2p4GdAxfpWa7J-15" target="cRkElGh2p4GdAxfpWa7J-18">
          <mxGeometry relative="1" as="geometry" />
        </mxCell>
        <mxCell id="cRkElGh2p4GdAxfpWa7J-74" style="edgeStyle=orthogonalEdgeStyle;rounded=0;orthogonalLoop=1;jettySize=auto;html=1;entryX=1;entryY=0.5;entryDx=0;entryDy=0;" edge="1" parent="1" source="cRkElGh2p4GdAxfpWa7J-15" target="cRkElGh2p4GdAxfpWa7J-6">
          <mxGeometry relative="1" as="geometry">
            <mxPoint x="900" y="450" as="targetPoint" />
            <Array as="points">
              <mxPoint x="901" y="630" />
              <mxPoint x="901" y="550" />
            </Array>
          </mxGeometry>
        </mxCell>
        <mxCell id="cRkElGh2p4GdAxfpWa7J-15" value="Type=meta？" style="rhombus;whiteSpace=wrap;html=1;" vertex="1" parent="1">
          <mxGeometry x="690" y="615" width="140" height="30" as="geometry" />
        </mxCell>
        <mxCell id="cRkElGh2p4GdAxfpWa7J-72" style="edgeStyle=orthogonalEdgeStyle;rounded=0;orthogonalLoop=1;jettySize=auto;html=1;" edge="1" parent="1" source="cRkElGh2p4GdAxfpWa7J-16">
          <mxGeometry relative="1" as="geometry">
            <mxPoint x="457.5" y="760" as="targetPoint" />
            <Array as="points">
              <mxPoint x="458" y="740" />
              <mxPoint x="458" y="740" />
            </Array>
          </mxGeometry>
        </mxCell>
        <mxCell id="cRkElGh2p4GdAxfpWa7J-16" value="轮询headers中字段" style="rounded=0;whiteSpace=wrap;html=1;" vertex="1" parent="1">
          <mxGeometry x="397.5" y="680" width="120" height="30" as="geometry" />
        </mxCell>
        <mxCell id="cRkElGh2p4GdAxfpWa7J-68" style="edgeStyle=orthogonalEdgeStyle;rounded=0;orthogonalLoop=1;jettySize=auto;html=1;" edge="1" parent="1" source="cRkElGh2p4GdAxfpWa7J-17">
          <mxGeometry relative="1" as="geometry">
            <mxPoint x="610" y="790" as="targetPoint" />
            <Array as="points">
              <mxPoint x="610" y="755" />
              <mxPoint x="611" y="755" />
            </Array>
          </mxGeometry>
        </mxCell>
        <mxCell id="cRkElGh2p4GdAxfpWa7J-17" value="提取目标网站script部分" style="rounded=0;whiteSpace=wrap;html=1;" vertex="1" parent="1">
          <mxGeometry x="540" y="680" width="140" height="30" as="geometry" />
        </mxCell>
        <mxCell id="cRkElGh2p4GdAxfpWa7J-57" style="edgeStyle=orthogonalEdgeStyle;rounded=0;orthogonalLoop=1;jettySize=auto;html=1;entryX=0.5;entryY=0;entryDx=0;entryDy=0;" edge="1" parent="1" source="cRkElGh2p4GdAxfpWa7J-18" target="cRkElGh2p4GdAxfpWa7J-20">
          <mxGeometry relative="1" as="geometry" />
        </mxCell>
        <mxCell id="cRkElGh2p4GdAxfpWa7J-18" value="提取目标网站meta部分" style="rounded=0;whiteSpace=wrap;html=1;" vertex="1" parent="1">
          <mxGeometry x="690" y="680" width="127" height="30" as="geometry" />
        </mxCell>
        <mxCell id="cRkElGh2p4GdAxfpWa7J-67" style="edgeStyle=orthogonalEdgeStyle;rounded=0;orthogonalLoop=1;jettySize=auto;html=1;entryX=1;entryY=0.75;entryDx=0;entryDy=0;" edge="1" parent="1" source="cRkElGh2p4GdAxfpWa7J-20" target="cRkElGh2p4GdAxfpWa7J-66">
          <mxGeometry relative="1" as="geometry">
            <mxPoint x="760" y="840" as="targetPoint" />
            <Array as="points">
              <mxPoint x="760" y="790" />
            </Array>
          </mxGeometry>
        </mxCell>
        <mxCell id="cRkElGh2p4GdAxfpWa7J-20" value="轮询meta中字段" style="rounded=0;whiteSpace=wrap;html=1;" vertex="1" parent="1">
          <mxGeometry x="690" y="730" width="127" height="30" as="geometry" />
        </mxCell>
        <mxCell id="cRkElGh2p4GdAxfpWa7J-26" value="" style="endArrow=classic;html=1;rounded=0;entryX=0.5;entryY=0;entryDx=0;entryDy=0;" edge="1" parent="1" source="cRkElGh2p4GdAxfpWa7J-3" target="cRkElGh2p4GdAxfpWa7J-4">
          <mxGeometry width="50" height="50" relative="1" as="geometry">
            <mxPoint x="410" y="520" as="sourcePoint" />
            <mxPoint x="460" y="470" as="targetPoint" />
          </mxGeometry>
        </mxCell>
        <mxCell id="cRkElGh2p4GdAxfpWa7J-27" value="" style="endArrow=classic;html=1;rounded=0;exitX=0.5;exitY=1;exitDx=0;exitDy=0;entryX=0.5;entryY=0;entryDx=0;entryDy=0;" edge="1" parent="1" source="cRkElGh2p4GdAxfpWa7J-4" target="cRkElGh2p4GdAxfpWa7J-5">
          <mxGeometry width="50" height="50" relative="1" as="geometry">
            <mxPoint x="410" y="520" as="sourcePoint" />
            <mxPoint x="460" y="470" as="targetPoint" />
          </mxGeometry>
        </mxCell>
        <mxCell id="cRkElGh2p4GdAxfpWa7J-28" value="" style="endArrow=classic;html=1;rounded=0;exitX=0.5;exitY=1;exitDx=0;exitDy=0;entryX=0.5;entryY=0;entryDx=0;entryDy=0;" edge="1" parent="1" source="cRkElGh2p4GdAxfpWa7J-5" target="cRkElGh2p4GdAxfpWa7J-6">
          <mxGeometry width="50" height="50" relative="1" as="geometry">
            <mxPoint x="410" y="620" as="sourcePoint" />
            <mxPoint x="460" y="570" as="targetPoint" />
          </mxGeometry>
        </mxCell>
        <mxCell id="cRkElGh2p4GdAxfpWa7J-56" value="" style="endArrow=classic;html=1;rounded=0;entryX=0.562;entryY=-0.075;entryDx=0;entryDy=0;entryPerimeter=0;" edge="1" parent="1" target="cRkElGh2p4GdAxfpWa7J-18">
          <mxGeometry width="50" height="50" relative="1" as="geometry">
            <mxPoint x="760" y="650" as="sourcePoint" />
            <mxPoint x="760" y="670" as="targetPoint" />
          </mxGeometry>
        </mxCell>
        <mxCell id="cRkElGh2p4GdAxfpWa7J-58" value="是" style="text;html=1;align=center;verticalAlign=middle;resizable=0;points=[];autosize=1;strokeColor=none;fillColor=none;" vertex="1" parent="1">
          <mxGeometry x="240" y="558" width="40" height="30" as="geometry" />
        </mxCell>
        <mxCell id="cRkElGh2p4GdAxfpWa7J-59" value="否" style="text;html=1;align=center;verticalAlign=middle;resizable=0;points=[];autosize=1;strokeColor=none;fillColor=none;" vertex="1" parent="1">
          <mxGeometry x="210" y="608" width="40" height="30" as="geometry" />
        </mxCell>
        <mxCell id="cRkElGh2p4GdAxfpWa7J-60" value="否" style="text;html=1;align=center;verticalAlign=middle;resizable=0;points=[];autosize=1;strokeColor=none;fillColor=none;" vertex="1" parent="1">
          <mxGeometry x="350" y="608" width="40" height="30" as="geometry" />
        </mxCell>
        <mxCell id="cRkElGh2p4GdAxfpWa7J-61" value="否" style="text;html=1;align=center;verticalAlign=middle;resizable=0;points=[];autosize=1;strokeColor=none;fillColor=none;" vertex="1" parent="1">
          <mxGeometry x="500" y="608" width="40" height="30" as="geometry" />
        </mxCell>
        <mxCell id="cRkElGh2p4GdAxfpWa7J-62" value="否" style="text;html=1;align=center;verticalAlign=middle;resizable=0;points=[];autosize=1;strokeColor=none;fillColor=none;" vertex="1" parent="1">
          <mxGeometry x="650" y="600" width="40" height="30" as="geometry" />
        </mxCell>
        <mxCell id="cRkElGh2p4GdAxfpWa7J-63" value="是" style="text;html=1;align=center;verticalAlign=middle;resizable=0;points=[];autosize=1;strokeColor=none;fillColor=none;" vertex="1" parent="1">
          <mxGeometry x="760" y="648" width="40" height="30" as="geometry" />
        </mxCell>
        <mxCell id="cRkElGh2p4GdAxfpWa7J-64" value="是" style="text;html=1;align=center;verticalAlign=middle;resizable=0;points=[];autosize=1;strokeColor=none;fillColor=none;" vertex="1" parent="1">
          <mxGeometry x="600" y="648" width="40" height="30" as="geometry" />
        </mxCell>
        <mxCell id="cRkElGh2p4GdAxfpWa7J-65" value="是" style="text;html=1;align=center;verticalAlign=middle;resizable=0;points=[];autosize=1;strokeColor=none;fillColor=none;" vertex="1" parent="1">
          <mxGeometry x="450" y="648" width="40" height="30" as="geometry" />
        </mxCell>
        <mxCell id="cRkElGh2p4GdAxfpWa7J-79" style="edgeStyle=orthogonalEdgeStyle;rounded=0;orthogonalLoop=1;jettySize=auto;html=1;" edge="1" parent="1" source="cRkElGh2p4GdAxfpWa7J-66">
          <mxGeometry relative="1" as="geometry">
            <mxPoint x="457.5" y="820" as="targetPoint" />
          </mxGeometry>
        </mxCell>
        <mxCell id="cRkElGh2p4GdAxfpWa7J-66" value="提取组件指纹的匹配模式" style="rounded=0;whiteSpace=wrap;html=1;" vertex="1" parent="1">
          <mxGeometry x="377.5" y="760" width="160" height="40" as="geometry" />
        </mxCell>
        <mxCell id="cRkElGh2p4GdAxfpWa7J-75" value="否" style="text;html=1;align=center;verticalAlign=middle;resizable=0;points=[];autosize=1;strokeColor=none;fillColor=none;" vertex="1" parent="1">
          <mxGeometry x="10" y="650" width="40" height="30" as="geometry" />
        </mxCell>
        <mxCell id="cRkElGh2p4GdAxfpWa7J-80" style="edgeStyle=orthogonalEdgeStyle;rounded=0;orthogonalLoop=1;jettySize=auto;html=1;entryX=0.5;entryY=0;entryDx=0;entryDy=0;" edge="1" parent="1" source="cRkElGh2p4GdAxfpWa7J-76" target="cRkElGh2p4GdAxfpWa7J-77">
          <mxGeometry relative="1" as="geometry" />
        </mxCell>
        <mxCell id="cRkElGh2p4GdAxfpWa7J-90" style="edgeStyle=orthogonalEdgeStyle;rounded=0;orthogonalLoop=1;jettySize=auto;html=1;entryX=0.623;entryY=0.058;entryDx=0;entryDy=0;entryPerimeter=0;" edge="1" parent="1" source="cRkElGh2p4GdAxfpWa7J-76" target="cRkElGh2p4GdAxfpWa7J-89">
          <mxGeometry relative="1" as="geometry" />
        </mxCell>
        <mxCell id="cRkElGh2p4GdAxfpWa7J-76" value="正则匹配成功？" style="rhombus;whiteSpace=wrap;html=1;" vertex="1" parent="1">
          <mxGeometry x="373" y="820" width="166" height="40" as="geometry" />
        </mxCell>
        <mxCell id="cRkElGh2p4GdAxfpWa7J-91" style="edgeStyle=orthogonalEdgeStyle;rounded=0;orthogonalLoop=1;jettySize=auto;html=1;" edge="1" parent="1" source="cRkElGh2p4GdAxfpWa7J-77" target="cRkElGh2p4GdAxfpWa7J-89">
          <mxGeometry relative="1" as="geometry" />
        </mxCell>
        <mxCell id="cRkElGh2p4GdAxfpWa7J-77" value="关键字匹配成功？" style="rhombus;whiteSpace=wrap;html=1;" vertex="1" parent="1">
          <mxGeometry x="368.5" y="890" width="175" height="50" as="geometry" />
        </mxCell>
        <mxCell id="cRkElGh2p4GdAxfpWa7J-92" style="edgeStyle=orthogonalEdgeStyle;rounded=0;orthogonalLoop=1;jettySize=auto;html=1;entryX=0;entryY=0.5;entryDx=0;entryDy=0;" edge="1" parent="1" source="cRkElGh2p4GdAxfpWa7J-78" target="cRkElGh2p4GdAxfpWa7J-89">
          <mxGeometry relative="1" as="geometry" />
        </mxCell>
        <mxCell id="cRkElGh2p4GdAxfpWa7J-99" style="edgeStyle=orthogonalEdgeStyle;rounded=0;orthogonalLoop=1;jettySize=auto;html=1;entryX=0;entryY=0.75;entryDx=0;entryDy=0;" edge="1" parent="1" source="cRkElGh2p4GdAxfpWa7J-78" target="cRkElGh2p4GdAxfpWa7J-96">
          <mxGeometry relative="1" as="geometry">
            <Array as="points">
              <mxPoint x="450" y="1110" />
            </Array>
          </mxGeometry>
        </mxCell>
        <mxCell id="cRkElGh2p4GdAxfpWa7J-101" style="edgeStyle=orthogonalEdgeStyle;rounded=0;orthogonalLoop=1;jettySize=auto;html=1;entryX=0;entryY=0.5;entryDx=0;entryDy=0;" edge="1" parent="1" source="cRkElGh2p4GdAxfpWa7J-78" target="cRkElGh2p4GdAxfpWa7J-6">
          <mxGeometry relative="1" as="geometry">
            <Array as="points">
              <mxPoint x="20" y="985" />
              <mxPoint x="20" y="550" />
            </Array>
          </mxGeometry>
        </mxCell>
        <mxCell id="cRkElGh2p4GdAxfpWa7J-78" value="md5匹配成功？" style="rhombus;whiteSpace=wrap;html=1;" vertex="1" parent="1">
          <mxGeometry x="374" y="960" width="167" height="50" as="geometry" />
        </mxCell>
        <mxCell id="cRkElGh2p4GdAxfpWa7J-84" value="" style="endArrow=classic;html=1;rounded=0;exitX=0.5;exitY=1;exitDx=0;exitDy=0;entryX=0.5;entryY=0;entryDx=0;entryDy=0;" edge="1" parent="1" source="cRkElGh2p4GdAxfpWa7J-77" target="cRkElGh2p4GdAxfpWa7J-78">
          <mxGeometry width="50" height="50" relative="1" as="geometry">
            <mxPoint x="560" y="920" as="sourcePoint" />
            <mxPoint x="610" y="870" as="targetPoint" />
          </mxGeometry>
        </mxCell>
        <mxCell id="cRkElGh2p4GdAxfpWa7J-85" value="否" style="text;html=1;align=center;verticalAlign=middle;resizable=0;points=[];autosize=1;strokeColor=none;fillColor=none;" vertex="1" parent="1">
          <mxGeometry x="450" y="798" width="40" height="30" as="geometry" />
        </mxCell>
        <mxCell id="cRkElGh2p4GdAxfpWa7J-86" value="否" style="text;html=1;align=center;verticalAlign=middle;resizable=0;points=[];autosize=1;strokeColor=none;fillColor=none;" vertex="1" parent="1">
          <mxGeometry x="450" y="858" width="40" height="30" as="geometry" />
        </mxCell>
        <mxCell id="cRkElGh2p4GdAxfpWa7J-87" value="否" style="text;html=1;align=center;verticalAlign=middle;resizable=0;points=[];autosize=1;strokeColor=none;fillColor=none;" vertex="1" parent="1">
          <mxGeometry x="450" y="938" width="40" height="30" as="geometry" />
        </mxCell>
        <mxCell id="cRkElGh2p4GdAxfpWa7J-97" style="edgeStyle=orthogonalEdgeStyle;rounded=0;orthogonalLoop=1;jettySize=auto;html=1;" edge="1" parent="1" source="cRkElGh2p4GdAxfpWa7J-89" target="cRkElGh2p4GdAxfpWa7J-96">
          <mxGeometry relative="1" as="geometry" />
        </mxCell>
        <mxCell id="cRkElGh2p4GdAxfpWa7J-89" value="返回组件名称" style="rounded=0;whiteSpace=wrap;html=1;" vertex="1" parent="1">
          <mxGeometry x="620" y="980" width="120" height="42" as="geometry" />
        </mxCell>
        <mxCell id="cRkElGh2p4GdAxfpWa7J-93" value="是" style="text;html=1;align=center;verticalAlign=middle;resizable=0;points=[];autosize=1;strokeColor=none;fillColor=none;" vertex="1" parent="1">
          <mxGeometry x="590" y="820" width="40" height="30" as="geometry" />
        </mxCell>
        <mxCell id="cRkElGh2p4GdAxfpWa7J-94" value="是" style="text;html=1;align=center;verticalAlign=middle;resizable=0;points=[];autosize=1;strokeColor=none;fillColor=none;" vertex="1" parent="1">
          <mxGeometry x="590" y="890" width="40" height="30" as="geometry" />
        </mxCell>
        <mxCell id="cRkElGh2p4GdAxfpWa7J-95" value="是" style="text;html=1;align=center;verticalAlign=middle;resizable=0;points=[];autosize=1;strokeColor=none;fillColor=none;" vertex="1" parent="1">
          <mxGeometry x="570" y="968" width="40" height="30" as="geometry" />
        </mxCell>
        <mxCell id="cRkElGh2p4GdAxfpWa7J-96" value="结束" style="rounded=1;whiteSpace=wrap;html=1;" vertex="1" parent="1">
          <mxGeometry x="635" y="1080" width="90" height="40" as="geometry" />
        </mxCell>
        <mxCell id="cRkElGh2p4GdAxfpWa7J-100" value="Text" style="text;html=1;align=center;verticalAlign=middle;resizable=0;points=[];autosize=1;strokeColor=none;fillColor=none;" vertex="1" parent="1">
          <mxGeometry x="435" y="1048" width="50" height="30" as="geometry" />
        </mxCell>
      </root>
    </mxGraphModel>
  </diagram>
</mxfile>
